<svg width="1038" height="377" viewBox="0 0 1038 377" fill="none" xmlns="http://www.w3.org/2000/svg">
<path d="M185.885 0.0566406C198.743 0.0566406 211.52 0.951823 224.215 2.74219C237.073 4.36979 249.361 6.4043 261.08 8.8457C272.962 11.1243 284.192 13.403 294.771 15.6816C305.351 17.9603 314.872 19.5879 323.336 20.5645C321.383 26.4238 320.406 36.7591 320.406 51.5703C320.406 80.3789 324.719 105.363 333.346 126.521C332.369 129.451 329.358 131.242 324.312 131.893L313.814 109.432C308.606 98.2012 302.34 87.1335 295.016 76.2285C287.691 65.1608 278.902 55.3138 268.648 46.6875C258.395 37.8984 246.432 30.8184 232.76 25.4473C219.251 20.0762 203.626 17.3906 185.885 17.3906C170.585 17.3906 156.995 19.9134 145.113 24.959C133.232 30.0046 122.815 36.8405 113.863 45.4668C104.911 53.9303 97.3431 63.8587 91.1582 75.252C84.9733 86.4824 79.9277 98.4453 76.0215 111.141C72.278 123.836 69.5111 136.857 67.7207 150.203C66.0931 163.549 65.2793 176.489 65.2793 189.021C65.2793 209.855 67.9648 229.793 73.3359 248.836C78.8698 267.879 87.4147 284.725 98.9707 299.373C110.527 313.859 125.175 325.415 142.916 334.041C160.82 342.667 182.141 346.98 206.881 346.98C254.244 346.98 290.051 332.169 314.303 302.547C316.907 302.547 319.023 303.279 320.65 304.744C322.441 306.209 323.336 307.999 323.336 310.115C315.523 321.671 306.002 331.681 294.771 340.145C283.704 348.608 271.904 355.607 259.371 361.141C246.839 366.512 234.143 370.499 221.285 373.104C208.59 375.708 196.79 377.01 185.885 377.01C174.003 377.01 161.145 375.708 147.311 373.104C133.639 370.662 119.885 366.512 106.051 360.652C92.3789 354.793 79.1953 347.143 66.5 337.703C53.9674 328.1 42.8184 316.382 33.0527 302.547C23.2871 288.549 15.4746 272.192 9.61523 253.475C3.75586 234.757 0.826172 213.273 0.826172 189.021C0.826172 164.607 3.75586 143.042 9.61523 124.324C15.4746 105.444 23.2871 89.0052 33.0527 75.0078C42.9811 61.0104 54.293 49.2917 66.9883 39.8516C79.8464 30.2487 93.1113 22.5176 106.783 16.6582C120.455 10.6361 134.127 6.4043 147.799 3.96289C161.471 1.35872 174.166 0.0566406 185.885 0.0566406ZM601.168 111.385C594.983 81.5996 583.59 58.4876 566.988 42.0488C550.549 25.61 530.774 17.3906 507.662 17.3906C485.038 17.3906 467.46 22.7617 454.928 33.5039C442.558 44.2461 436.373 58.569 436.373 76.4727C436.373 86.401 437.268 94.6204 439.059 101.131C440.849 107.641 444.511 113.989 450.045 120.174C455.579 126.196 463.635 131.567 474.215 136.287C484.794 140.844 498.629 145.239 515.719 149.471C524.996 151.749 533.053 153.865 539.889 155.818C546.887 157.771 554.537 160.457 562.838 163.875C571.301 167.293 578.544 170.955 584.566 174.861C590.751 178.768 596.855 183.65 602.877 189.51C609.062 195.206 614.026 201.554 617.77 208.553C621.676 215.551 624.768 223.852 627.047 233.455C629.488 242.895 630.709 253.23 630.709 264.461C630.709 279.435 627.942 293.27 622.408 305.965C616.874 318.497 609.632 329.077 600.68 337.703C591.728 346.329 581.393 353.654 569.674 359.676C557.955 365.698 546.074 370.092 534.029 372.859C521.985 375.626 510.022 377.01 498.141 377.01C462.008 377.01 423.515 367.651 382.662 348.934C383.476 331.355 383.883 320.532 383.883 316.463C383.883 289.933 381.686 263.484 377.291 237.117C379.081 235.978 380.872 235.408 382.662 235.408C384.941 235.408 386.975 235.978 388.766 237.117C392.184 258.113 397.799 276.668 405.611 292.781C413.587 308.895 422.701 321.671 432.955 331.111C443.209 340.389 453.788 347.387 464.693 352.107C475.761 356.665 486.91 358.943 498.141 358.943C523.694 358.943 543.307 352.352 556.979 339.168C570.813 325.822 577.73 308.243 577.73 286.434C577.73 264.461 572.604 247.941 562.35 236.873C552.258 225.643 532.89 216.528 504.244 209.529C468.437 200.577 440.442 187.394 420.26 169.979C400.24 152.4 390.23 129.207 390.23 100.398C390.23 85.2617 392.672 71.7526 397.555 59.8711C402.6 47.8268 409.029 38.224 416.842 31.0625C424.817 23.7383 434.094 17.7161 444.674 12.9961C455.253 8.11328 465.67 4.77669 475.924 2.98633C486.34 1.0332 496.92 0.0566406 507.662 0.0566406C539.889 0.0566406 573.417 7.54362 608.248 22.5176C607.271 32.1204 606.783 42.1302 606.783 52.5469C606.783 76.9609 608.736 96.5736 612.643 111.385C610.527 112.199 608.736 112.605 607.271 112.605C605.644 112.605 603.609 112.199 601.168 111.385ZM679.781 8.11328C714.938 9.41536 743.258 10.0664 764.742 10.0664C772.88 10.0664 785.982 9.74089 804.049 9.08984C822.115 8.4388 836.031 8.11328 845.797 8.11328C881.93 8.11328 910.331 17.2279 931.002 35.457C951.835 53.6862 962.252 77.3678 962.252 106.502C962.252 129.939 955.335 150.936 941.5 169.49C927.665 187.882 908.785 201.066 884.859 209.041C895.764 228.572 910.738 250.708 929.781 275.447C948.173 300.024 965.67 319.311 982.271 333.309C999.036 347.306 1017.02 355.2 1036.23 356.99C1036.88 359.594 1037.2 361.629 1037.2 363.094C1037.2 364.721 1036.88 366.512 1036.23 368.465C1026.46 367.977 1016.04 367.651 1004.98 367.488C993.909 367.326 981.539 367.244 967.867 367.244C954.358 367.244 943.941 367.163 936.617 367C892.835 316.056 857.678 265.926 831.148 216.609C819.267 216.609 805.595 214.738 790.133 210.994C790.133 242.57 791.028 283.423 792.818 333.553C792.981 337.785 794.853 341.447 798.434 344.539C802.014 347.469 807.141 349.747 813.814 351.375C820.65 353.003 826.347 354.223 830.904 355.037C835.624 355.688 841.728 356.339 849.215 356.99C849.866 360.245 850.191 362.443 850.191 363.582C850.191 364.884 849.866 366.512 849.215 368.465C821.546 367.488 793.225 367 764.254 367C734.957 367 706.637 367.488 679.293 368.465C678.642 366.512 678.316 364.884 678.316 363.582C678.316 360.815 678.642 358.618 679.293 356.99C684.176 356.502 688.082 356.095 691.012 355.77C693.941 355.444 697.929 354.874 702.975 354.061C708.183 353.247 712.333 352.352 715.426 351.375C718.681 350.236 722.018 348.852 725.436 347.225C728.854 345.597 731.376 343.644 733.004 341.365C734.794 339.087 735.689 336.482 735.689 333.553C737.643 282.609 738.619 231.258 738.619 179.5C738.619 126.766 737.805 81.2741 736.178 43.0254C736.015 38.7936 734.143 35.2129 730.562 32.2832C726.982 29.1908 721.773 26.8307 714.938 25.2031C708.264 23.5755 702.568 22.4362 697.848 21.7852C693.29 20.9714 687.268 20.2389 679.781 19.5879C679.13 16.6582 678.805 14.6237 678.805 13.4844C678.805 12.5078 679.13 10.7174 679.781 8.11328ZM793.307 24.959H792.818C791.028 85.0176 790.133 140.844 790.133 192.439C801.526 196.183 813.082 198.055 824.801 198.055C835.543 198.055 845.146 196.264 853.609 192.684C862.236 188.94 869.316 184.057 874.85 178.035C880.383 172.013 884.941 164.933 888.521 156.795C892.265 148.657 894.869 140.438 896.334 132.137C897.962 123.836 898.775 115.291 898.775 106.502C898.775 82.2507 892.102 62.4753 878.756 47.1758C865.572 31.7135 846.773 23.9824 822.359 23.9824C810.315 23.9824 800.631 24.3079 793.307 24.959Z" fill="white"/>
</svg>
