<svg width="515" height="757" viewBox="0 0 515 757" fill="none" xmlns="http://www.w3.org/2000/svg">
<g filter="url(#filter0_d_3_12)">
<path d="M152.641 0C187.082 0 301.281 333.535 301.281 541.39C301.281 551.057 229.378 570.997 152.641 570.997C75.9034 570.997 4.00003 551.057 4.00003 541.39C4.60426 316.616 118.199 0 152.641 0Z" fill="#1CA538"/>
<path d="M51.13 454.381L62.0061 443.505L122.429 494.26L128.471 400.604L77.7161 351.662L84.3626 345.619L129.68 384.29L141.16 196.979H161.1L174.393 386.707L222.127 345.619L228.774 352.266L175.601 403.625L182.248 496.073L243.879 443.505L254.755 454.381L184.061 532.931L197.958 765.722H107.928L120.012 531.118L51.13 454.381Z" fill="#65320B"/>
</g>
<g filter="url(#filter1_d_3_12)">
<path d="M166.046 405.539V404.319C158.319 359.584 179.873 313.63 251.855 324.61C256.735 325.424 259.582 291.669 295.369 284.349C310.416 281.503 340.104 281.096 356.371 283.943C377.925 287.603 397.852 305.09 408.832 331.117H419.812C460.073 328.677 484.88 364.464 478.78 401.879C477.967 405.539 478.374 409.199 477.967 412.859C494.234 423.839 509.281 448.646 509.281 473.047C509.281 508.835 481.22 534.455 451.533 534.455H451.126C454.786 571.463 421.439 584.883 394.598 584.883H342.544C335.223 584.883 328.31 583.256 321.803 580.41C314.483 584.07 306.756 586.51 298.216 586.51H245.755C218.914 586.51 196.14 564.549 189.227 534.455C189.227 534.455 133.105 566.176 119.278 474.267C112.772 435.226 139.612 409.606 166.046 405.539Z" fill="#1CA538"/>
<path d="M214.847 497.041C216.881 523.475 232.335 524.695 238.841 523.882C236.808 521.035 234.775 517.781 233.148 514.121C222.168 492.568 233.148 467.76 229.894 466.54C214.441 458.813 223.388 434.82 223.388 434.82L227.048 435.633C222.168 448.24 226.234 457.187 233.961 461.253C253.482 471.014 262.429 450.68 262.429 450.68L264.055 455.153C256.735 471.827 235.995 471.827 235.995 471.827L235.588 488.501C250.228 508.428 256.735 488.501 256.735 488.501L257.548 493.788C245.348 514.528 236.808 496.228 236.808 496.228C237.621 511.681 246.162 521.035 255.515 526.728C273.816 538.115 292.929 535.269 292.929 535.269C282.762 527.948 279.102 519.815 280.729 508.428C282.356 496.634 287.643 497.854 297.809 490.534C304.316 486.061 307.976 479.961 309.196 468.574C310.823 457.187 294.556 449.053 294.556 449.053L296.589 445.393C325.87 456.373 310.823 484.434 310.823 484.434C320.99 484.841 322.21 484.841 327.903 470.2C333.597 455.56 347.424 464.507 347.424 464.507L346.611 467.354C336.037 460.033 331.564 475.894 331.564 475.894C328.717 494.601 311.636 493.381 311.636 493.381C281.542 499.888 301.876 544.622 326.683 538.115C364.911 527.948 358.811 519.002 358.811 519.002C336.037 506.395 352.711 486.467 352.711 486.467L356.371 489.314C344.171 494.194 356.371 518.595 368.978 511.681C382.805 503.954 371.011 489.721 371.011 489.721L375.078 490.534C387.278 510.461 365.318 519.002 365.318 519.002C364.504 526.728 361.251 532.015 357.591 535.675C377.518 534.455 419.812 526.728 406.799 482.401C406.799 482.401 369.384 484.841 367.351 450.273L372.638 448.24C372.638 448.24 375.485 477.114 407.612 475.487C407.612 475.487 432.013 469.794 418.186 442.546L422.659 441.733C422.659 441.733 439.739 466.54 414.119 481.587C414.119 481.587 421.032 501.108 413.306 518.595C423.472 523.475 430.793 510.055 430.793 510.055L431.606 518.188C422.659 528.762 414.526 525.915 410.865 523.882C402.732 536.895 384.432 547.876 346.611 547.062L347.017 756.501H282.356L290.489 547.062C270.969 544.215 255.108 542.995 242.501 527.948C213.221 534.862 210.781 497.041 210.781 497.041H214.847Z" fill="#65320B"/>
</g>
<defs>
<filter id="filter0_d_3_12" x="0" y="0" width="305.281" height="773.722" filterUnits="userSpaceOnUse" color-interpolation-filters="sRGB">
<feFlood flood-opacity="0" result="BackgroundImageFix"/>
<feColorMatrix in="SourceAlpha" type="matrix" values="0 0 0 0 0 0 0 0 0 0 0 0 0 0 0 0 0 0 127 0" result="hardAlpha"/>
<feOffset dy="4"/>
<feGaussianBlur stdDeviation="2"/>
<feComposite in2="hardAlpha" operator="out"/>
<feColorMatrix type="matrix" values="0 0 0 0 0 0 0 0 0 0 0 0 0 0 0 0 0 0 0.25 0"/>
<feBlend mode="normal" in2="BackgroundImageFix" result="effect1_dropShadow_3_12"/>
<feBlend mode="normal" in="SourceGraphic" in2="effect1_dropShadow_3_12" result="shape"/>
</filter>
<filter id="filter1_d_3_12" x="113.292" y="277" width="400.989" height="484.501" filterUnits="userSpaceOnUse" color-interpolation-filters="sRGB">
<feFlood flood-opacity="0" result="BackgroundImageFix"/>
<feColorMatrix in="SourceAlpha" type="matrix" values="0 0 0 0 0 0 0 0 0 0 0 0 0 0 0 0 0 0 127 0" result="hardAlpha"/>
<feOffset/>
<feGaussianBlur stdDeviation="2.5"/>
<feComposite in2="hardAlpha" operator="out"/>
<feColorMatrix type="matrix" values="0 0 0 0 0 0 0 0 0 0 0 0 0 0 0 0 0 0 1 0"/>
<feBlend mode="normal" in2="BackgroundImageFix" result="effect1_dropShadow_3_12"/>
<feBlend mode="normal" in="SourceGraphic" in2="effect1_dropShadow_3_12" result="shape"/>
</filter>
</defs>
</svg>
