<svg width="306" height="757" viewBox="0 0 306 757" fill="none" xmlns="http://www.w3.org/2000/svg">
<g filter="url(#filter0_d_3_10)">
<path d="M152.641 0C187.082 0 301.281 333.535 301.281 541.39C301.281 551.057 229.378 570.997 152.641 570.997C75.9034 570.997 4.00003 551.057 4.00003 541.39C4.60426 316.616 118.199 0 152.641 0Z" fill="#1CA538"/>
<path d="M51.13 454.381L62.0061 443.505L122.429 494.26L128.471 400.604L77.7161 351.662L84.3626 345.619L129.68 384.29L141.16 196.979H161.1L174.393 386.707L222.127 345.619L228.774 352.266L175.601 403.625L182.248 496.073L243.879 443.505L254.755 454.381L184.061 532.931L197.958 765.722H107.928L120.012 531.118L51.13 454.381Z" fill="#65320B"/>
</g>
<defs>
<filter id="filter0_d_3_10" x="0" y="0" width="305.281" height="773.722" filterUnits="userSpaceOnUse" color-interpolation-filters="sRGB">
<feFlood flood-opacity="0" result="BackgroundImageFix"/>
<feColorMatrix in="SourceAlpha" type="matrix" values="0 0 0 0 0 0 0 0 0 0 0 0 0 0 0 0 0 0 127 0" result="hardAlpha"/>
<feOffset dy="4"/>
<feGaussianBlur stdDeviation="2"/>
<feComposite in2="hardAlpha" operator="out"/>
<feColorMatrix type="matrix" values="0 0 0 0 0 0 0 0 0 0 0 0 0 0 0 0 0 0 0.25 0"/>
<feBlend mode="normal" in2="BackgroundImageFix" result="effect1_dropShadow_3_10"/>
<feBlend mode="normal" in="SourceGraphic" in2="effect1_dropShadow_3_10" result="shape"/>
</filter>
</defs>
</svg>
