<svg width="391" height="475" viewBox="0 0 391 475" fill="none" xmlns="http://www.w3.org/2000/svg">
<path d="M343.235 123.539V122.319C350.962 77.5844 329.408 31.6299 257.426 42.6102C252.546 43.4236 249.699 9.66942 213.912 2.34925C198.865 -0.497489 169.177 -0.904166 152.91 1.94257C131.356 5.60266 111.429 23.0897 100.449 49.117H89.4688C49.2079 46.677 24.4006 82.4645 30.5007 119.879C31.3141 123.539 30.9074 127.199 31.3141 130.859C15.047 141.839 0 166.646 0 191.047C0 226.835 28.0607 252.455 57.7481 252.455H58.1547C54.4946 289.463 87.8421 302.883 114.683 302.883H166.737C174.058 302.883 180.971 301.256 187.478 298.41C194.798 302.07 202.525 304.51 211.065 304.51H263.526C290.367 304.51 313.141 282.549 320.054 252.455C320.054 252.455 376.176 284.176 390.003 192.267C396.51 153.226 369.669 127.606 343.235 123.539Z" fill="#1CA538"/>
<path d="M294.434 215.041C292.4 241.475 276.946 242.695 270.44 241.882C272.473 239.035 274.506 235.781 276.133 232.121C287.113 210.568 276.133 185.76 279.387 184.54C294.84 176.813 285.893 152.82 285.893 152.82L282.233 153.633C287.113 166.24 283.047 175.187 275.32 179.253C255.799 189.014 246.852 168.68 246.852 168.68L245.226 173.153C252.546 189.827 273.286 189.827 273.286 189.827L273.693 206.501C259.053 226.428 252.546 206.501 252.546 206.501L251.733 211.788C263.933 232.528 272.473 214.228 272.473 214.228C271.66 229.681 263.119 239.035 253.766 244.728C235.465 256.115 216.352 253.269 216.352 253.269C226.519 245.948 230.179 237.815 228.552 226.428C226.925 214.634 221.638 215.854 211.472 208.534C204.965 204.061 201.305 197.961 200.085 186.574C198.458 175.187 214.725 167.053 214.725 167.053L212.692 163.393C183.411 174.373 198.458 202.434 198.458 202.434C188.291 202.841 187.071 202.841 181.378 188.2C175.684 173.56 161.857 182.507 161.857 182.507L162.67 185.354C173.244 178.033 177.717 193.894 177.717 193.894C180.564 212.601 197.645 211.381 197.645 211.381C227.739 217.888 207.405 262.622 182.598 256.115C144.37 245.948 150.47 237.002 150.47 237.002C173.244 224.395 156.57 204.467 156.57 204.467L152.91 207.314C165.11 212.194 152.91 236.595 140.303 229.681C126.476 221.954 138.27 207.721 138.27 207.721L134.203 208.534C122.003 228.461 143.963 237.002 143.963 237.002C144.777 244.728 148.03 250.015 151.69 253.675C131.763 252.455 89.4687 244.728 102.482 200.401C102.482 200.401 139.897 202.841 141.93 168.273L136.643 166.24C136.643 166.24 133.796 195.114 101.669 193.487C101.669 193.487 77.2684 187.794 91.0954 160.546L86.6219 159.733C86.6219 159.733 69.5415 184.54 95.1621 199.587C95.1621 199.587 88.2486 219.108 95.9755 236.595C85.8086 241.475 78.4884 228.055 78.4884 228.055L77.675 236.188C86.6219 246.762 94.7555 243.915 98.4156 241.882C106.549 254.895 124.85 265.876 162.67 265.062L162.264 474.501H226.925L218.792 265.062C238.312 262.215 254.173 260.995 266.78 245.948C296.06 252.862 298.5 215.041 298.5 215.041H294.434Z" fill="#65320B"/>
</svg>
