<svg width="465" height="130" viewBox="0 0 465 130" fill="none" xmlns="http://www.w3.org/2000/svg">
<path d="M53.4782 36.4262C49.2697 16.399 41.0943 6.38543 28.9522 6.38548C19.5919 6.38548 13.9319 12.8435 13.9319 21.9864C13.9319 34.5397 25.5419 38.5304 35.5554 42.0861C51.3739 47.7459 64.2176 54.4943 64.2176 72.9251C64.2176 90.4852 51.737 104.635 33.8139 104.635C22.349 104.635 12.6983 98.1768 8.85249 94.8388L5.51456 102.25H0V64.9433H5.80499C7.90925 74.3038 10.5213 81.4148 13.7142 86.4218C18.721 94.1858 25.2515 98.1042 33.3785 98.1042C44.408 98.1042 50.5761 90.6302 50.5761 79.9636C50.5761 66.0316 39.6916 62.0408 28.2267 58.1224C12.6983 52.8979 0.725548 46.2221 0.725548 28.2992C0.725548 12.0452 11.9001 0 28.3717 0C37.8051 0 44.9161 4.136 50.7211 8.48975L53.4782 2.25H58.8481V36.4262H53.4782ZM97.5641 103.038L76.6661 48.4716C73.4735 40.1269 72.3125 38.8209 68.0313 38.8209H65.6366V33.0159H99.0878V38.8209H94.0087C91.3962 38.8209 90.308 39.8367 90.308 41.8684C90.4023 43.0698 90.6965 44.2469 91.1785 45.3514L105.473 81.7778L117.519 48.1814C118.146 46.4772 118.537 44.6949 118.68 42.8844C118.68 40.1269 117.301 38.8209 114.108 38.8209H108.884V33.0159H135.006V38.8209H132.539C129.491 38.8209 128.33 40.4897 126.371 45.7869L103.224 107.755C97.6367 122.775 92.9928 129.016 82.6161 129.016C74.7069 129.016 67.5231 123.936 67.5231 115.519C67.5231 110.077 71.1515 105.941 76.7388 105.941C81.6005 105.941 85.5913 109.206 85.5913 114.213C85.5913 117.769 83.8498 120.453 80.3668 122.195C81.254 122.498 82.1869 122.645 83.1243 122.63C88.8565 122.63 92.0495 118.712 96.1129 107.174L97.5641 103.038ZM177.393 56.0181C174.418 43.3197 168.54 37.0067 159.833 37.0067C153.81 37.0067 149.892 40.4897 149.892 46.5849C149.892 53.9864 158.599 56.2358 164.259 58.1224C176.304 62.0408 186.898 67.2653 186.898 81.3423C186.898 95.2018 176.522 103.764 163.098 103.764C156.009 103.724 149.156 101.209 143.724 96.653L141.91 102.25H136.83V75.6098H141.91C145.103 85.9863 150.327 97.814 163.098 97.814C169.774 97.814 174.127 93.17 174.127 86.5668C174.127 77.7868 165.202 74.8118 158.309 72.4171C147.425 68.6439 137.556 63.7096 137.556 50.7936C137.556 38.6032 147.207 31.492 158.817 31.492C165.148 31.6592 171.276 33.761 176.377 37.5147L177.828 33.0159H182.907V56.0181H177.393ZM237.312 85.1155C237.312 96.9432 230.491 103.764 218.736 103.764C206.981 103.764 200.087 96.9432 200.087 85.1155V39.8367H189.421V33.8865C196.169 32.2902 200.668 29.823 203.425 26.4127C206.4 22.7845 208.287 15.891 209.303 7.25623H214.963V33.0159H235.062V39.8367H214.963V85.9863C214.963 93.823 218.155 96.2175 221.638 96.2175C226.718 96.2175 230.273 92.5168 230.273 83.882V76.9886H237.312V85.1155ZM259.433 67.9183C259.941 79.4558 260.449 97.3785 275.397 97.3785C285.193 97.3785 290.127 89.3243 293.61 81.4148L299.56 84.535C293.9 95.9998 286.934 104.345 273.075 104.345C251.886 104.345 243.252 86.204 243.252 67.6281C243.252 49.7777 251.959 30.9115 271.768 30.9115C293.102 30.9115 299.705 51.3741 300.14 67.9183H259.433ZM283.959 61.5328C283.669 44.8434 279.605 37.0067 272.059 37.0067C264.512 37.0067 260.086 45.4964 259.578 61.5328H283.959ZM399.601 51.5192V89.3242C399.674 94.5487 401.633 96.5803 406.858 96.5803H408.817V102.25H384.726V52.8979C384.726 43.1745 381.824 39.1837 375.584 39.1837C367.747 39.1837 364.119 48.1814 364.119 60.6621V89.3242C364.191 94.5487 366.15 96.5803 371.375 96.5803H373.769V102.25H349.243V52.8979C349.243 43.1745 346.268 39.1837 340.028 39.1837C331.901 39.1837 328.563 48.1814 328.563 60.6621V89.3242C328.636 94.5487 330.595 96.5803 335.819 96.5803H338.214V102.25H303.747V96.5803H306.432C311.656 96.5803 313.688 94.5487 313.688 89.3242V45.2789C313.615 40.0544 311.656 38.0227 306.432 38.0227H304.472V32.3627H327.692V40.1269C329.536 37.4643 331.998 35.288 334.866 33.7842C337.735 32.2805 340.925 31.494 344.164 31.492C352.871 31.492 358.604 35.483 362.087 42.0862C363.782 38.9126 366.3 36.2541 369.377 34.3899C372.454 32.5258 375.977 31.5247 379.574 31.492C392.345 31.492 399.601 38.8209 399.601 51.5192ZM454.859 56.0182C451.884 43.3197 446.007 37.0067 437.299 37.0067C431.277 37.0067 427.358 40.4897 427.358 46.585C427.358 53.9864 436.066 56.2359 441.726 58.1224C453.771 62.0409 464.365 67.2654 464.365 81.3424C464.365 95.2018 453.988 103.764 440.565 103.764C433.475 103.724 426.622 101.209 421.19 96.6531L419.376 102.25H414.297V75.6098H419.376C422.569 85.9863 427.794 97.814 440.565 97.814C447.24 97.814 451.594 93.17 451.594 86.5668C451.594 77.7868 442.669 74.8118 435.776 72.4171C424.891 68.6439 415.023 63.7096 415.023 50.7936C415.023 38.6032 424.673 31.492 436.283 31.492C442.614 31.6592 448.742 33.761 453.843 37.5147L455.295 33.0159H460.374V56.0181L454.859 56.0182Z" fill="#E20074"/>
</svg>
