<svg width="1397" height="832" viewBox="0 0 1397 832" fill="none" xmlns="http://www.w3.org/2000/svg">
<path d="M1162.36 466.195L1168.61 280V277.185L1201.91 241.87L1204.66 242.16L1206.23 245.5L1212.34 466.195L1217.52 491.921L1219.73 831.5H1154.97L1157.18 491.921L1162.36 466.195Z" fill="white"/>
<path d="M1186.24 160.734C1169.52 160.734 1154.84 171.21 1149.18 186.404L1099.72 23.9716C1096.98 14.9491 1101.76 5.35982 1110.64 2.06472L1113.18 1.12226C1122.06 -2.15882 1131.99 1.98064 1135.85 10.5906L1205.3 165.603C1201.77 163.668 1197.87 162.23 1193.69 161.444C1191.23 160.975 1188.71 160.734 1186.24 160.734Z" fill="white"/>
<path d="M1046.42 338.27L1146.69 200.954C1147.09 219.125 1160.19 235.221 1178.86 238.765C1181.31 239.232 1183.82 239.459 1186.3 239.459C1188.53 239.459 1190.73 239.268 1192.88 238.906L1076.13 362.693C1069.65 369.567 1058.91 370.247 1051.61 364.238L1049.52 362.523C1042.21 356.519 1040.86 345.904 1046.42 338.27Z" fill="white"/>
<path d="M1225.16 207.474C1227.45 195.496 1224 183.746 1216.74 175.001L1382.94 213.648C1392.18 215.795 1398.13 224.704 1396.56 234.002L1396.11 236.66C1394.53 245.944 1385.96 252.429 1376.54 251.444L1206.77 233.747C1216.09 228.106 1222.99 218.743 1225.16 207.474Z" fill="white"/>
<path d="M1216.67 205.866C1213.47 222.557 1197.26 233.507 1180.48 230.332C1163.68 227.149 1152.67 211.025 1155.87 194.342C1159.08 177.644 1175.27 166.688 1192.07 169.877C1208.85 173.059 1219.87 189.161 1216.67 205.866ZM1189.1 185.334C1180.9 183.782 1172.99 189.125 1171.42 197.29C1169.85 205.441 1175.24 213.307 1183.45 214.86C1191.64 216.412 1199.55 211.061 1201.12 202.918C1202.68 194.768 1197.29 186.893 1189.1 185.334Z" fill="white"/>
<path d="M233.13 466.195L226.915 280V277.185L193.797 241.87L191.061 242.16L189.501 245.5L183.428 466.195L178.282 491.921L176.079 831.5H240.473L238.276 491.921L233.13 466.195Z" fill="white"/>
<path d="M209.381 160.734C226.007 160.734 240.601 171.21 246.235 186.404L295.407 23.9716C298.135 14.9491 293.38 5.35982 284.549 2.06472L282.027 1.12226C273.196 -2.15882 263.323 1.98064 259.481 10.5906L190.423 165.603C193.939 163.668 197.816 162.23 201.975 161.444C204.42 160.975 206.922 160.734 209.381 160.734Z" fill="white"/>
<path d="M348.411 338.27L248.709 200.954C248.305 219.125 235.279 235.221 216.717 238.765C214.285 239.232 211.791 239.459 209.324 239.459C207.1 239.459 204.917 239.268 202.776 238.906L318.865 362.693C325.314 369.567 335.988 370.247 343.252 364.238L345.328 362.523C352.594 356.519 353.94 345.904 348.411 338.27Z" fill="white"/>
<path d="M170.685 207.474C168.403 195.496 171.834 183.746 179.055 175.001L13.7939 213.648C4.60929 215.795 -1.31611 224.704 0.250858 234.002L0.696685 236.66C2.26365 245.944 10.7896 252.429 20.159 251.444L188.97 233.747C179.7 228.106 172.84 218.743 170.685 207.474Z" fill="white"/>
<path d="M179.119 205.866C182.301 222.557 198.418 233.507 215.109 230.332C231.813 227.149 242.762 211.025 239.581 194.342C236.391 177.644 220.29 166.688 203.585 169.877C186.894 173.059 175.944 189.161 179.119 205.866ZM206.539 185.334C214.69 183.782 222.557 189.125 224.116 197.29C225.675 205.441 220.317 213.307 212.159 214.86C204.009 216.412 196.149 211.061 194.589 202.918C193.031 194.768 198.389 186.893 206.539 185.334Z" fill="white"/>
</svg>
